<svg xmlns="http://www.w3.org/2000/svg" viewBox="0 0 62.67 50.1"><defs><style>.cls-1{fill:none;stroke:#fff;stroke-linecap:round;stroke-linejoin:round;stroke-width:3px;}</style></defs><g id="Layer_2" data-name="Layer 2"><g id="Layer_1-2" data-name="Layer 1"><path class="cls-1" d="M45.42,29.12A9.86,9.86,0,0,1,43.25,48.6H11.36c-5.44,0-9.86-3.87-9.86-9.32a9.88,9.88,0,0,1,7.58-9.6,7.81,7.81,0,0,1-.42-2.53A7.95,7.95,0,0,1,22.19,21.5h0a12.3,12.3,0,0,1,23.5,5.08,22.14,22.14,0,0,1-.27,2.54Z"/><path class="cls-1" d="M47.37,27c7.07,0,13.8-5.74,13.8-12.81,0-.06,0-.12,0-.18A9.52,9.52,0,1,1,46.85,1.5c-6.36.75-11.29,5.15-11.29,11.71"/></g></g></svg>