<svg xmlns="http://www.w3.org/2000/svg" viewBox="0 0 66.3 52.65"><defs><style>.cls-1{fill:none;stroke:#fff;stroke-linecap:round;stroke-linejoin:round;stroke-width:2.77px;}</style></defs><g id="Layer_2" data-name="Layer 2"><g id="Layer_1-2" data-name="Layer 1"><path class="cls-1" d="M49,30.13a10.7,10.7,0,0,1-2.36,21.14H12.08c-5.91,0-10.7-4.2-10.7-10.11A10.7,10.7,0,0,1,9.6,30.75a8.61,8.61,0,0,1,14.22-8.87h0a13.33,13.33,0,0,1,25.48,5.5A25,25,0,0,1,49,30.14Z"/><path class="cls-1" d="M58,37.91a10.7,10.7,0,0,0-1.45-20.44,24.2,24.2,0,0,0,.29-2.76A13.34,13.34,0,0,0,36.21,3.56a13.54,13.54,0,0,0-4.84,5.65,8.62,8.62,0,0,0-14.22,8.87A10.7,10.7,0,0,0,8.94,28.49a9.8,9.8,0,0,0,.23,2.19"/></g></g></svg>