<svg xmlns="http://www.w3.org/2000/svg" viewBox="0 0 64.44 60.88"><defs><style>.cls-1{fill:none;stroke-width:3px;}.cls-1,.cls-2{stroke:#fff;stroke-linecap:round;stroke-linejoin:round;}.cls-2{fill:#fff;}</style></defs><g id="Layer_2" data-name="Layer 2"><g id="Layer_1-2" data-name="Layer 1"><path class="cls-1" d="M48.4,21.07a10.53,10.53,0,0,1-2.32,20.81H12c-5.81,0-10.53-4.14-10.53-10A10.53,10.53,0,0,1,9.59,21.67,8.35,8.35,0,0,1,9.15,19a8.48,8.48,0,0,1,14.44-6h0a13.13,13.13,0,0,1,25.09,5.42,24.23,24.23,0,0,1-.28,2.71Z"/><path class="cls-1" d="M39.8,5.93A13.25,13.25,0,1,1,55.51,26.65"/><path class="cls-2" d="M17.17,51.47a1.91,1.91,0,1,1-1.91-1.91A1.92,1.92,0,0,1,17.17,51.47Z"/><path class="cls-2" d="M31,51.47a1.91,1.91,0,1,1-1.91-1.91A1.92,1.92,0,0,1,31,51.47Z"/><path class="cls-2" d="M44.76,51.47a1.91,1.91,0,1,1-1.9-1.91A1.91,1.91,0,0,1,44.76,51.47Z"/><path class="cls-2" d="M24.17,58.47a1.91,1.91,0,1,1-1.91-1.91A1.92,1.92,0,0,1,24.17,58.47Z"/><path class="cls-2" d="M38,58.47a1.91,1.91,0,1,1-1.91-1.91A1.92,1.92,0,0,1,38,58.47Z"/></g></g></svg>