<svg xmlns="http://www.w3.org/2000/svg" viewBox="0 0 54.19 59.38"><defs><style>.cls-1{fill:none;stroke-width:3px;}.cls-1,.cls-2{stroke:#fff;stroke-linecap:round;stroke-linejoin:round;}.cls-2{fill:#fff;}</style></defs><g id="Layer_2" data-name="Layer 2"><g id="Layer_1-2" data-name="Layer 1"><path class="cls-1" d="M36.09,26.61A7.77,7.77,0,0,1,34.38,42H9.27C5,42,1.5,38.9,1.5,34.62a7.77,7.77,0,0,1,6-7.56,6.27,6.27,0,0,1,5.93-8.25,6.22,6.22,0,0,1,4.4,1.81h0a9.69,9.69,0,0,1,18.51,4,17.5,17.5,0,0,1-.21,2Z"/><path class="cls-1" d="M38.88,27C46,27,52.69,21.28,52.69,14.21c0-.06,0-.12,0-.18A9.52,9.52,0,1,1,38.37,1.5c-6.36.75-11.3,5.15-11.3,11.71"/><path class="cls-2" d="M9.93,50A1.91,1.91,0,1,1,8,48.06,1.91,1.91,0,0,1,9.93,50Z"/><path class="cls-2" d="M23.73,50a1.91,1.91,0,1,1-1.91-1.91A1.91,1.91,0,0,1,23.73,50Z"/><path class="cls-2" d="M37.53,50a1.91,1.91,0,1,1-1.91-1.91A1.91,1.91,0,0,1,37.53,50Z"/><path class="cls-2" d="M16.93,57A1.91,1.91,0,1,1,15,55.06,1.91,1.91,0,0,1,16.93,57Z"/><path class="cls-2" d="M30.73,57a1.91,1.91,0,1,1-1.91-1.91A1.91,1.91,0,0,1,30.73,57Z"/></g></g></svg>