<svg xmlns="http://www.w3.org/2000/svg" viewBox="0 0 64.46 65.14"><defs><style>.cls-1{fill:none;stroke:#fff;stroke-linecap:round;stroke-linejoin:round;stroke-width:3px;}</style></defs><g id="Layer_2" data-name="Layer 2"><g id="Layer_1-2" data-name="Layer 1"><line class="cls-1" x1="11.72" y1="52.72" x2="10.94" y2="58.21"/><line class="cls-1" x1="19.76" y1="52.72" x2="18.21" y2="63.64"/><line class="cls-1" x1="28.09" y1="52.72" x2="26.54" y2="63.64"/><line class="cls-1" x1="36.14" y1="52.72" x2="35.36" y2="58.21"/><path class="cls-1" d="M39.9,29.05a8.63,8.63,0,0,1-1.9,17H10.12c-4.76,0-8.62-3.39-8.62-8.15a8.61,8.61,0,0,1,6.62-8.39,7.07,7.07,0,0,1-.36-2.22,6.94,6.94,0,0,1,11.82-4.94h0a10.76,10.76,0,0,1,20.55,4.44,19.85,19.85,0,0,1-.23,2.22Z"/><path class="cls-1" d="M32.86,16.66a10.84,10.84,0,1,1,12.86,17"/><line class="cls-1" x1="40.98" y1="5.71" x2="40.95" y2="1.5"/><line class="cls-1" x1="58.74" y1="25.53" x2="62.96" y2="25.5"/><line class="cls-1" x1="54.41" y1="11.08" x2="57.37" y2="8.08"/><line class="cls-1" x1="26.5" y1="11.08" x2="23.54" y2="8.08"/><line class="cls-1" x1="55.71" y1="40.77" x2="52.76" y2="37.77"/></g></g></svg>