<svg xmlns="http://www.w3.org/2000/svg" viewBox="0 0 54.19 61.37"><defs><style>.cls-1{fill:none;stroke:#fff;stroke-linecap:round;stroke-linejoin:round;stroke-width:3px;}</style></defs><g id="Layer_2" data-name="Layer 2"><g id="Layer_1-2" data-name="Layer 1"><line class="cls-1" x1="9.91" y1="48.95" x2="9.13" y2="54.44"/><line class="cls-1" x1="17.95" y1="48.95" x2="16.4" y2="59.87"/><line class="cls-1" x1="26.29" y1="48.95" x2="24.73" y2="59.87"/><line class="cls-1" x1="34.33" y1="48.95" x2="33.55" y2="54.44"/><path class="cls-1" d="M36.09,26.61A7.77,7.77,0,0,1,34.38,42H9.27C5,42,1.5,38.9,1.5,34.62a7.78,7.78,0,0,1,6-7.56,6.27,6.27,0,0,1,5.93-8.25,6.22,6.22,0,0,1,4.4,1.81h0a9.69,9.69,0,0,1,18.51,4,17.5,17.5,0,0,1-.21,2Z"/><path class="cls-1" d="M38.88,27C46,27,52.69,21.28,52.69,14.21c0-.06,0-.12,0-.18A9.52,9.52,0,1,1,38.37,1.5c-6.36.75-11.3,5.15-11.3,11.71"/></g></g></svg>