<svg xmlns="http://www.w3.org/2000/svg" viewBox="0 0 63.42 60.61"><defs><style>.cls-1{fill:#fff;}.cls-1,.cls-2{stroke:#fff;stroke-linecap:round;stroke-linejoin:round;}.cls-2{fill:none;stroke-width:3px;}</style></defs><g id="Layer_2" data-name="Layer 2"><g id="Layer_1-2" data-name="Layer 1"><polygon class="cls-1" points="27.68 43.07 21.43 50.88 27.43 50.96 20.49 60.11 41.09 48.7 33.86 48.67 37.69 43.07 27.68 43.07"/><path class="cls-2" d="M52.92,18.86a11.55,11.55,0,0,1-2.54,22.82H13.05C6.67,41.68,1.5,37.14,1.5,30.76a11.55,11.55,0,0,1,8.87-11.23,9.11,9.11,0,0,1-.49-3A9.3,9.3,0,0,1,25.71,10h0a14.4,14.4,0,0,1,27.51,5.94,27.4,27.4,0,0,1-.3,3Z"/><path class="cls-1" d="M16.09,48.87A1.91,1.91,0,1,1,14.19,47,1.91,1.91,0,0,1,16.09,48.87Z"/><path class="cls-1" d="M50.69,48.87A1.91,1.91,0,1,1,48.78,47,1.91,1.91,0,0,1,50.69,48.87Z"/><path class="cls-1" d="M40.69,57.87A1.91,1.91,0,1,1,38.78,56,1.91,1.91,0,0,1,40.69,57.87Z"/></g></g></svg>