<svg xmlns="http://www.w3.org/2000/svg" viewBox="0 0 64.44 55.25"><defs><style>.cls-1,.cls-2{fill:none;stroke:#fff;stroke-linecap:round;stroke-linejoin:round;}.cls-1{stroke-width:3px;}.cls-2{stroke-width:2px;}</style></defs><g id="Layer_2" data-name="Layer 2"><g id="Layer_1-2" data-name="Layer 1"><path class="cls-1" d="M12,41.88c-5.81,0-10.53-4.14-10.53-10A10.55,10.55,0,0,1,9.59,21.67,8.35,8.35,0,0,1,9.15,19a8.48,8.48,0,0,1,14.44-6h0a13.13,13.13,0,0,1,25.09,5.42,24.23,24.23,0,0,1-.28,2.71h0a10.53,10.53,0,0,1-2.32,20.81"/><path class="cls-1" d="M39.8,5.93A13.25,13.25,0,1,1,55.51,26.65"/><line class="cls-2" x1="29.06" y1="29.5" x2="29.06" y2="54.25"/><line class="cls-2" x1="41.43" y1="41.88" x2="16.68" y2="41.88"/><polyline class="cls-2" points="18.68 38.29 22.27 41.88 18.68 45.46"/><polyline class="cls-2" points="39.43 45.46 35.85 41.88 39.43 38.29"/><polyline class="cls-2" points="25.48 52.25 29.06 48.67 32.64 52.25"/><polyline class="cls-2" points="32.64 31.5 29.06 35.09 25.48 31.5"/><line class="cls-2" x1="37.81" y1="33.13" x2="20.31" y2="50.63"/><line class="cls-2" x1="37.81" y1="50.63" x2="20.31" y2="33.13"/></g></g></svg>