<svg xmlns="http://www.w3.org/2000/svg" viewBox="0 0 65.94 64.28"><defs><style>.cls-1,.cls-2{fill:none;stroke:#fff;stroke-linecap:round;stroke-linejoin:round;}.cls-1{stroke-width:3px;}.cls-2{stroke-width:2px;}</style></defs><g id="Layer_2" data-name="Layer 2"><g id="Layer_1-2" data-name="Layer 1"><path class="cls-1" d="M50.64,27c7.07,0,13.8-5.74,13.8-12.81V14A9.52,9.52,0,1,1,50.13,1.5c-6.36.75-11.3,5.15-11.3,11.71"/><path class="cls-1" d="M12,50.91C6.22,50.91,1.5,46.77,1.5,41A10.55,10.55,0,0,1,9.59,30.7,8.35,8.35,0,0,1,9.15,28a8.48,8.48,0,0,1,14.44-6h0a13.13,13.13,0,0,1,25.09,5.42,24.23,24.23,0,0,1-.28,2.71h0a10.53,10.53,0,0,1-2.32,20.81"/><line class="cls-2" x1="29.06" y1="38.53" x2="29.06" y2="63.28"/><line class="cls-2" x1="41.43" y1="50.91" x2="16.68" y2="50.91"/><polyline class="cls-2" points="18.68 47.32 22.27 50.91 18.68 54.49"/><polyline class="cls-2" points="39.43 54.49 35.85 50.91 39.43 47.32"/><polyline class="cls-2" points="25.48 61.28 29.06 57.7 32.64 61.28"/><polyline class="cls-2" points="32.64 40.53 29.06 44.12 25.48 40.53"/><line class="cls-2" x1="37.81" y1="42.16" x2="20.31" y2="59.66"/><line class="cls-2" x1="37.81" y1="59.66" x2="20.31" y2="42.16"/></g></g></svg>