<?xml version="1.0" encoding="utf-8"?>
<!-- Generator: Adobe Illustrator 25.2.0, SVG Export Plug-In . SVG Version: 6.00 Build 0)  -->
<svg version="1.1" id="Layer_1" xmlns="http://www.w3.org/2000/svg" xmlns:xlink="http://www.w3.org/1999/xlink" x="0px" y="0px"
	 viewBox="0 0 177.9 170.5" style="enable-background:new 0 0 177.9 170.5;" xml:space="preserve">
<style type="text/css">
	.st0{display:none;}
	.st1{fill:#FFFFFF;}
</style>
<rect x="-0.7" class="st0" width="178.6" height="170.5"/>
<path class="st1" d="M167.5,90.8c24.2-38.3-4.8-90.3-50.2-89.8C72,0.6,43,52.5,67.2,91c2.6,4.6,46.4,77.9,46.4,77.9
	c0.7,0.9,1.8,1.5,2.9,1.5s2.2-0.7,2.9-1.5C119.3,168.9,167.1,92.1,167.5,90.8z M73.1,87.9c-22-34.1,3.7-80.6,44.2-80.1
	c40.9-0.2,66.5,46.2,44,80.8l-34.8,55.9c-0.7,0.9-9.2,15-10.1,16.3L73.3,88.6C73.3,88.4,73.1,88.2,73.1,87.9z"/>
<path class="st1" d="M139.4,58.9c0-11.9-9.7-21.4-21.4-21.4c-28.4,1.1-28.4,41.6,0,42.9C129.7,80.2,139.4,70.6,139.4,58.9z
	 M103.1,58.9c0-8.1,6.6-14.7,14.7-14.7c19.6,0.7,19.6,29.1,0,29.7C109.9,73.6,103.1,67,103.1,58.9z"/>
</svg>
